<?xml version="1.0" standalone="no"?>
<!DOCTYPE svg PUBLIC "-//W3C//DTD SVG 20010904//EN"
 "http://www.w3.org/TR/2001/REC-SVG-20010904/DTD/svg10.dtd">
<svg version="1.0" xmlns="http://www.w3.org/2000/svg"
 width="532.000000pt" height="532.000000pt" viewBox="0 0 532.000000 532.000000"
 preserveAspectRatio="xMidYMid meet">
<metadata>
Created by potrace 1.14, written by Peter Selinger 2001-2017
</metadata>
<g transform="translate(0.000000,532.000000) scale(0.100000,-0.100000)"
fill="#000000" stroke="none">
<path d="M0 2660 l0 -2660 2660 0 2660 0 0 2660 0 2660 -2660 0 -2660 0 0
-2660z m2554 2484 c3 -8 2 -12 -4 -9 -6 3 -10 10 -10 16 0 14 7 11 14 -7z
m-44 -19 c0 -12 -19 -12 -23 0 -4 9 -1 12 9 8 7 -3 14 -7 14 -8z m47 -20 c0
-8 -4 -15 -9 -15 -10 0 -11 14 -1 23 9 10 10 9 10 -8z m133 5 c13 -8 13 -10
-2 -10 -9 0 -20 5 -23 10 -8 13 5 13 25 0z m-487 -37 c-7 -2 -19 -2 -25 0 -7
3 -2 5 12 5 14 0 19 -2 13 -5z m71 -8 c-4 -8 -8 -15 -10 -15 -2 0 -4 7 -4 15
0 8 4 15 10 15 5 0 7 -7 4 -15z m131 4 c-7 -11 -35 -12 -35 -1 0 4 9 8 20 9
11 1 18 -2 15 -8z m35 1 c0 -5 -2 -10 -4 -10 -3 0 -8 5 -11 10 -3 6 -1 10 4
10 6 0 11 -4 11 -10z m150 6 c0 -3 -4 -8 -10 -11 -5 -3 -10 -1 -10 4 0 6 5 11
10 11 6 0 10 -2 10 -4z m182 -18 c-7 -7 -12 -8 -12 -2 0 6 3 14 7 17 3 4 9 5
12 2 2 -3 -1 -11 -7 -17z m-461 -15 c-12 -20 -14 -14 -5 12 4 9 9 14 11 11 3
-2 0 -13 -6 -23z m248 -40 c14 -25 31 -48 38 -50 6 -3 29 19 49 46 21 28 41
51 45 51 4 0 15 -23 24 -51 23 -70 39 -72 90 -14 23 27 44 44 47 39 3 -5 13
-33 22 -61 10 -29 23 -53 30 -53 7 0 28 16 47 36 65 67 64 68 65 -90 2 -211
31 -467 110 -973 18 -122 34 -224 34 -227 0 -4 -6 -6 -14 -6 -19 0 -73 -46
-65 -55 4 -3 23 4 43 15 31 19 40 20 72 10 105 -35 94 -203 -14 -212 -40 -3
-51 -21 -15 -26 24 -3 27 -15 38 -117 3 -33 15 -97 25 -143 l20 -82 -38 -35
c-74 -69 -215 -115 -352 -115 l-86 0 -18 55 c-15 50 -20 55 -46 55 -46 0 -78
17 -95 50 -12 24 -13 31 -3 35 7 2 60 21 118 41 123 42 214 82 282 124 55 34
68 37 68 14 0 -9 6 -14 13 -11 19 7 9 49 -20 79 -33 34 -51 37 -29 4 15 -24
15 -25 -32 -54 -192 -118 -513 -212 -733 -215 -160 -3 -184 18 -199 172 -4 47
-18 128 -30 179 -12 51 -20 96 -17 98 10 10 57 -9 62 -25 9 -30 51 -62 94 -72
65 -14 201 24 201 57 0 13 -4 13 -27 0 -45 -22 -138 -39 -177 -32 -68 13 -95
97 -48 149 22 25 53 36 127 48 33 5 81 15 107 21 44 11 50 10 71 -10 65 -61
203 -83 289 -44 58 25 113 74 146 131 24 42 27 55 26 141 -1 68 -6 104 -18
128 -20 39 -40 44 -26 6 16 -41 13 -44 -51 -44 -115 0 -297 -37 -392 -80 -23
-11 -47 -20 -54 -20 -16 0 -5 75 18 124 11 22 19 44 19 49 0 15 -39 -23 -46
-45 -4 -13 -11 -17 -25 -13 -11 4 -19 2 -19 -4 0 -6 5 -11 10 -11 6 0 10 -26
10 -58 l0 -57 -57 -3 c-93 -5 -203 -31 -282 -68 -41 -19 -77 -32 -80 -29 -5 5
9 78 25 133 5 17 3 21 -9 16 -27 -10 -42 59 -27 121 11 45 10 64 -4 131 -23
105 -78 306 -132 483 -24 80 -42 147 -39 149 3 3 22 -7 43 -22 21 -14 46 -26
55 -26 20 0 37 30 37 67 0 15 5 35 10 43 8 12 16 8 48 -23 61 -59 81 -49 103
55 l12 53 38 -45 c47 -55 64 -49 89 28 10 29 20 56 24 59 4 4 24 -13 45 -37
46 -53 62 -50 87 20 25 69 39 79 57 43 8 -15 24 -36 34 -46 19 -16 20 -16 35
0 9 10 23 34 33 53 36 73 41 73 84 -7z m514 60 c3 -5 -14 -9 -36 -10 -34 -1
-37 0 -17 7 33 11 48 12 53 3z m-886 -9 c-3 -3 -12 -4 -19 -1 -8 3 -5 6 6 6
11 1 17 -2 13 -5z m242 -22 c0 -11 -3 -12 -6 -4 -2 6 -12 12 -21 12 -14 0 -15
2 -2 9 18 12 30 5 29 -17z m176 18 c-3 -5 -11 -10 -16 -10 -6 0 -7 5 -4 10 3
6 11 10 16 10 6 0 7 -4 4 -10z m176 -23 c-10 -9 -11 -8 -5 6 3 10 9 15 12 12
3 -3 0 -11 -7 -18z m-510 -14 c-12 -20 -14 -14 -5 12 4 9 9 14 11 11 3 -2 0
-13 -6 -23z m-41 8 c0 -5 -9 -7 -20 -4 -11 3 -20 7 -20 9 0 2 9 4 20 4 11 0
20 -4 20 -9z m870 -11 c0 -5 -5 -10 -11 -10 -5 0 -7 5 -4 10 3 6 8 10 11 10 2
0 4 -4 4 -10z m-806 -15 c-4 -8 -8 -15 -10 -15 -2 0 -4 7 -4 15 0 8 4 15 10
15 5 0 7 -7 4 -15z m-257 -11 c-3 -3 -12 -4 -19 -1 -8 3 -5 6 6 6 11 1 17 -2
13 -5z m57 -40 c9 -24 2 -26 -12 -4 -7 11 -8 20 -3 20 5 0 12 -7 15 -16z
m-114 -21 c0 -19 -3 -24 -10 -17 -6 6 -8 18 -4 27 9 24 14 21 14 -10z m-54
-16 c4 -4 0 -7 -9 -7 -9 0 -18 4 -21 9 -7 10 20 9 30 -2z m34 -49 c0 -6 -6 -5
-15 2 -8 7 -15 14 -15 16 0 2 7 1 15 -2 8 -4 15 -11 15 -16z m1180 -62 c-1
-44 -2 -48 -12 -31 -18 30 -20 82 -2 82 10 0 14 -14 14 -51z m-1380 38 c0 -8
-19 -13 -24 -6 -3 5 1 9 9 9 8 0 15 -2 15 -3z m38 -13 c11 -7 10 -9 -3 -14 -9
-4 -14 -3 -10 2 3 5 -1 12 -7 14 -7 3 -8 6 -3 6 6 0 16 -3 23 -8z m1309 -83
c-3 -8 -6 -5 -6 6 -1 11 2 17 5 13 3 -3 4 -12 1 -19z m24 -51 c-10 -9 -11 -8
-5 6 3 10 9 15 12 12 3 -3 0 -11 -7 -18z m-41 -97 l-11 -25 6 25 c2 14 6 45 7
70 l2 45 3 -45 c2 -25 -1 -57 -7 -70z m-13 28 c-3 -8 -6 -5 -6 6 -1 11 2 17 5
13 3 -3 4 -12 1 -19z m-1363 -4 c3 -8 2 -12 -4 -9 -6 3 -10 10 -10 16 0 14 7
11 14 -7z m-22 -48 c-6 -11 -13 -28 -15 -36 -3 -8 -6 2 -6 22 -1 20 2 44 5 53
7 16 8 16 17 0 6 -11 6 -25 -1 -39z m1415 -38 c-3 -7 -5 -2 -5 12 0 14 2 19 5
13 2 -7 2 -19 0 -25z m-1350 -4 c-3 -3 -12 -4 -19 -1 -8 3 -5 6 6 6 11 1 17
-2 13 -5z m1350 -61 c-3 -10 -5 -4 -5 12 0 17 2 24 5 18 2 -7 2 -21 0 -30z
m-1321 -39 c-3 -8 -1 -25 5 -36 8 -15 8 -23 -2 -32 -9 -8 -10 -8 -4 3 5 9 3
18 -6 25 -16 13 -18 38 -4 48 15 11 18 10 11 -8z m1325 -131 c-12 -20 -14 -14
-5 12 4 9 9 14 11 11 3 -2 0 -13 -6 -23z m-1283 -10 c-1 -5 2 -19 6 -32 5 -15
4 -27 -4 -35 -10 -8 -11 -7 -8 4 3 8 1 23 -4 33 -5 9 -6 22 -3 27 7 12 16 13
13 3z m32 -203 c0 -5 -5 -10 -11 -10 -5 0 -7 5 -4 10 3 6 8 10 11 10 2 0 4 -4
4 -10z m1307 -72 c-3 -7 -5 -2 -5 12 0 14 2 19 5 13 2 -7 2 -19 0 -25z m20 0
c-3 -8 -6 -5 -6 6 -1 11 2 17 5 13 3 -3 4 -12 1 -19z m-6 -123 c-4 -17 -6 -15
-12 10 -4 17 -7 44 -7 60 0 28 1 27 12 -10 7 -22 10 -49 7 -60z m-297 20 c19
-97 -43 -214 -136 -261 -136 -69 -285 -24 -350 105 -35 69 -35 87 1 106 81 42
273 90 270 68 -4 -25 3 -44 21 -53 30 -16 60 4 60 40 l0 30 64 0 64 0 6 -35z
m-518 -140 c13 -33 24 -63 24 -67 0 -10 -62 -25 -130 -34 -83 -9 -136 -38
-157 -84 -21 -45 -29 -47 -84 -20 -45 24 -99 99 -99 140 0 27 26 45 111 75 35
13 37 12 48 -11 19 -41 71 -25 71 23 0 18 7 23 38 28 20 4 42 8 47 10 6 2 32
3 58 2 l48 -2 25 -60z m825 32 c-10 -9 -11 -8 -5 6 3 10 9 15 12 12 3 -3 0
-11 -7 -18z m-1329 -35 c3 -11 0 -19 -7 -19 -7 0 -10 8 -7 19 2 10 6 18 7 18
1 0 5 -8 7 -18z m1388 -84 c0 -4 -4 -10 -10 -13 -5 -3 -10 -2 -10 4 0 5 -8 12
-17 14 -10 3 -6 4 10 4 15 -1 27 -5 27 -9z m-1398 -90 c-6 -6 -7 0 -4 19 5 21
7 23 10 9 2 -10 0 -22 -6 -28z m1445 20 c-3 -8 -6 -5 -6 6 -1 11 2 17 5 13 3
-3 4 -12 1 -19z m32 -30 c-1 -35 -2 -38 -8 -18 -7 23 -4 60 5 60 2 0 4 -19 3
-42z m-1434 12 c3 -5 1 -10 -4 -10 -6 0 -11 5 -11 10 0 6 2 10 4 10 3 0 8 -4
11 -10z m55 -34 c0 -2 -7 -7 -16 -10 -8 -3 -12 -2 -9 4 6 10 25 14 25 6z m34
-42 c10 -38 0 -41 -12 -5 -6 17 -7 31 -3 31 5 0 12 -12 15 -26z m1363 -6 c-3
-8 -6 -5 -6 6 -1 11 2 17 5 13 3 -3 4 -12 1 -19z m-1327 -102 c0 -3 -4 -8 -10
-11 -5 -3 -10 -1 -10 4 0 6 5 11 10 11 6 0 10 -2 10 -4z m1259 -99 c1 -16 -3
-26 -8 -23 -5 3 -9 25 -9 48 0 32 2 38 8 23 5 -11 9 -33 9 -48z m-1260 -17 c0
-10 -3 -8 -9 5 -12 27 -12 43 0 25 5 -8 9 -22 9 -30z m-19 0 c0 -5 -2 -10 -4
-10 -3 0 -8 5 -11 10 -3 6 -1 10 4 10 6 0 11 -4 11 -10z m1271 -98 c-8 -13
-10 -5 -10 33 1 48 1 49 10 17 6 -21 6 -39 0 -50z m-1247 43 c-4 -8 -11 -15
-16 -15 -6 0 -5 6 2 15 7 8 14 15 16 15 2 0 1 -7 -2 -15z m1264 -106 c10 -13
10 -18 0 -22 -8 -3 -14 5 -14 20 -1 13 -1 23 0 21 1 -2 7 -10 14 -19z m-1224
-28 c3 -5 -1 -11 -9 -14 -9 -4 -12 -1 -8 9 6 16 10 17 17 5z m1356 -31 c13 -8
13 -10 -2 -10 -9 0 -20 5 -23 10 -8 13 5 13 25 0z m-900 -30 c0 -5 -7 -10 -16
-10 -8 0 -12 5 -9 10 3 6 10 10 16 10 5 0 9 -4 9 -10z m50 -10 c0 -13 -6 -20
-17 -19 -11 0 -13 3 -5 6 6 2 12 11 12 19 0 8 2 14 5 14 3 0 5 -9 5 -20z
m-111 -4 c-10 -9 -79 -14 -79 -5 0 5 19 9 42 9 23 0 39 -2 37 -4z m1051 -6 c0
-5 -5 -10 -11 -10 -5 0 -7 5 -4 10 3 6 8 10 11 10 2 0 4 -4 4 -10z m-1170 -20
c-11 -7 -60 -2 -60 6 0 2 16 3 35 2 20 -1 31 -4 25 -8z m246 -15 c-3 -9 -10
-13 -16 -10 -6 4 -5 11 3 20 15 16 22 11 13 -10z m925 -12 c13 -16 12 -17 -3
-4 -17 13 -22 21 -14 21 2 0 10 -8 17 -17z m-831 -3 c10 -7 11 -13 4 -17 -5
-5 -26 -30 -45 -58 -18 -27 -36 -52 -39 -55 -3 -3 -16 -29 -30 -57 -23 -48
-28 -53 -57 -53 -18 0 -33 3 -33 7 0 26 156 243 175 243 5 0 17 -5 25 -10z
m569 7 c-2 -1 -13 -9 -24 -17 -19 -14 -19 -14 -6 3 7 9 18 17 24 17 6 0 8 -1
6 -3z m351 -72 c0 -5 -5 -3 -10 5 -5 8 -10 20 -10 25 0 6 5 3 10 -5 5 -8 10
-19 10 -25z m-434 -7 c-8 -13 -22 -65 -31 -115 -15 -79 -16 -95 -4 -109 12
-15 10 -16 -31 -9 -25 4 -47 9 -49 11 -14 13 64 189 99 224 27 27 34 25 16 -2z
m-649 -13 c5 -4 2 -5 -6 0 -11 6 -13 4 -8 -8 3 -10 3 -17 -2 -17 -5 0 -11 9
-14 19 -5 19 15 23 30 6z m1062 -25 c11 -24 11 -24 -3 -6 -9 11 -16 24 -16 30
0 12 5 7 19 -24z m-800 -4 c9 -10 8 -16 -3 -25 -30 -25 -89 -160 -110 -253 -6
-27 -5 -28 37 -28 30 0 49 -6 61 -19 19 -21 21 -20 -104 -61 -82 -27 -186 -84
-182 -99 1 -7 -1 -10 -6 -7 -9 5 -102 -85 -102 -98 0 -4 -10 -23 -23 -44 -28
-47 -53 -118 -71 -202 -13 -68 -31 -85 -62 -59 -19 16 -11 78 24 174 46 131
146 257 283 356 63 46 66 51 98 136 45 121 114 243 137 243 6 0 17 -6 23 -14z
m84 -13 c-13 -2 -33 -2 -45 0 -13 2 -3 4 22 4 25 0 35 -2 23 -4z m731 -57 c-3
-15 -8 -25 -11 -23 -2 3 -1 17 3 31 3 15 8 25 11 23 2 -3 1 -17 -3 -31z
m-1143 -13 c-8 -15 -10 -15 -11 -2 0 17 10 32 18 25 2 -3 -1 -13 -7 -23z m-31
-65 c0 -36 -10 -32 -14 6 -2 14 1 26 5 26 5 0 9 -14 9 -32z m153 -19 c12 -7
23 -13 25 -14 1 -1 -5 -29 -14 -61 -15 -53 -21 -63 -71 -97 -31 -21 -57 -37
-58 -35 -2 2 12 41 31 88 61 150 51 137 87 119z m-155 -74 c0 -16 -2 -15 -8 5
-11 34 -11 60 0 35 5 -11 8 -29 8 -40z m52 35 c0 -5 -2 -10 -4 -10 -3 0 -8 5
-11 10 -3 6 -1 10 4 10 6 0 11 -4 11 -10z m-16 -50 c-6 -6 -10 -3 -10 10 0 13
4 16 10 10 7 -7 7 -13 0 -20z m810 -2 c58 -19 176 -74 176 -82 0 -17 -34 -159
-58 -241 -44 -152 -175 -495 -189 -495 -3 0 -30 23 -61 51 -32 28 -83 65 -114
82 -32 18 -58 36 -58 41 0 4 20 72 44 150 46 143 95 332 116 441 6 33 13 66
16 73 5 16 36 11 128 -20z m-840 -44 c3 -8 2 -12 -4 -9 -6 3 -10 10 -10 16 0
14 7 11 14 -7z m1192 -37 c9 -5 11 -14 5 -30 -4 -12 -6 -28 -4 -35 3 -7 -1
-11 -9 -10 -8 2 -12 -5 -10 -22 2 -24 2 -24 -12 -5 -13 18 -13 21 1 32 14 11
15 18 5 52 -7 21 -9 47 -5 57 7 17 8 16 11 -6 2 -14 10 -29 18 -33z m-59 -88
c2 -16 -1 -19 -9 -11 -5 5 -7 15 -4 21 10 15 12 14 13 -10z m-500 -11 c-3 -8
-6 -5 -6 6 -1 11 2 17 5 13 3 -3 4 -12 1 -19z m-703 -7 c3 -5 -1 -14 -8 -20
-12 -10 -13 -8 -9 8 6 23 9 25 17 12z m1109 -41 c-3 -11 -7 -20 -9 -20 -2 0
-4 9 -4 20 0 11 4 20 9 20 5 0 7 -9 4 -20z m57 -51 c0 -5 -7 -5 -17 -2 -9 4
-14 2 -10 -3 3 -6 -3 -11 -14 -11 -22 -2 -22 -2 -7 32 11 24 12 24 30 9 10
-10 18 -21 18 -25z m-1250 -6 c0 -21 -3 -24 -9 -14 -5 8 -7 20 -4 28 8 21 13
15 13 -14z m-93 -115 c-3 -8 -6 -5 -6 6 -1 11 2 17 5 13 3 -3 4 -12 1 -19z
m28 12 c3 -5 1 -10 -4 -10 -6 0 -11 5 -11 10 0 6 2 10 4 10 3 0 8 -4 11 -10z
m-15 -73 c0 -3 -6 -7 -12 -10 -8 -3 -14 5 -14 19 -2 20 0 21 12 9 8 -7 14 -16
14 -18z m1434 -113 c10 -26 7 -64 -5 -64 -6 0 -9 7 -6 15 4 8 2 17 -3 20 -10
6 -9 45 1 45 4 0 10 -7 13 -16z m56 -24 c0 -5 -2 -10 -4 -10 -3 0 -8 5 -11 10
-3 6 -1 10 4 10 6 0 11 -4 11 -10z m-1486 -115 l6 -30 -11 28 c-6 15 -15 27
-20 27 -6 0 -7 5 -3 11 9 15 22 -1 28 -36z m761 25 c28 -18 24 -25 -12 -21
-16 2 -47 -57 -48 -89 0 -16 -5 -24 -14 -22 -8 2 -11 -3 -8 -11 3 -8 2 -18 -3
-23 -13 -15 -22 -96 -10 -89 6 4 11 1 9 -6 -6 -45 -1 -49 37 -33 37 15 78 11
72 -8 -4 -12 -24 -17 -78 -20 -24 -1 -42 4 -56 18 -45 45 -60 183 -24 224 11
13 20 27 20 32 0 6 9 23 21 39 24 34 52 37 94 9z m-640 -8 c17 -11 55 -81 55
-100 0 -13 3 -13 12 -4 10 10 10 17 0 32 -10 16 -9 18 3 14 10 -4 15 0 15 16
0 14 4 19 12 14 7 -4 21 -8 33 -9 24 -1 77 -35 55 -35 -13 0 -13 -2 0 -10 13
-8 13 -10 -2 -10 -30 0 -29 -18 4 -50 25 -26 29 -34 17 -41 -8 -5 -9 -9 -2 -9
28 0 43 14 43 41 0 17 6 32 15 35 8 4 15 10 15 16 0 5 -3 7 -8 4 -8 -5 -48 21
-41 28 7 8 248 10 256 3 3 -4 -14 -8 -38 -9 l-44 -1 45 -6 c42 -6 39 -7 -42
-15 -48 -5 -96 -6 -105 -2 -15 5 -15 4 1 -9 11 -8 26 -15 33 -15 8 0 13 -14
13 -39 0 -32 6 -44 40 -75 26 -24 40 -44 40 -61 0 -20 5 -25 25 -25 40 0 73
-20 68 -41 -4 -13 5 -24 31 -40 20 -11 36 -22 36 -24 0 -1 -22 0 -50 3 -35 3
-50 1 -50 -7 0 -7 4 -10 9 -7 4 3 34 -1 66 -10 32 -8 63 -13 69 -10 6 2 3 5
-6 5 -10 1 -18 6 -18 12 0 12 21 6 88 -22 56 -24 53 -31 -5 -14 -42 12 -46 12
-29 0 11 -8 28 -15 38 -15 10 0 18 -4 18 -9 0 -4 11 -6 25 -3 20 3 25 0 25
-17 0 -12 5 -32 11 -44 10 -21 10 -21 -5 -3 -9 11 -16 16 -16 11 0 -5 -7 0
-15 11 -13 17 -14 17 -15 2 0 -11 -8 -18 -19 -18 -11 0 -23 -4 -26 -10 -3 -5
-13 -10 -21 -10 -8 0 -14 5 -14 10 0 6 9 10 20 10 13 0 18 5 14 15 -7 17 -31
20 -36 4 -6 -17 -38 1 -44 26 -4 17 -11 21 -30 17 -30 -5 -79 14 -118 45 -28
23 -28 24 -7 30 11 3 21 7 21 10 0 9 -29 33 -39 33 -6 0 -11 5 -11 10 0 6 -9
10 -21 10 -11 0 -29 5 -40 10 -13 7 -19 7 -19 0 0 -5 5 -10 10 -10 6 0 10 -4
10 -9 0 -10 -33 -3 -67 14 -13 7 -20 15 -16 19 4 4 -3 9 -15 13 -12 3 -22 12
-22 19 0 16 -9 18 -27 6 -16 -10 -12 -44 7 -59 11 -9 12 -12 2 -13 -8 0 -12
-10 -11 -27 5 -62 -1 -84 -23 -92 -29 -11 -53 5 -37 25 8 10 2 12 -30 9 -23
-2 -41 0 -41 5 0 10 26 20 43 16 6 -1 9 -1 5 1 -4 2 -4 12 -1 21 3 12 2 13 -4
5 -5 -7 -23 -13 -41 -15 -18 -1 -32 -6 -32 -10 0 -5 -9 -4 -21 2 -16 9 -18 14
-9 26 7 7 9 22 5 31 -6 16 -8 16 -19 -5 -13 -24 -26 -20 -26 9 0 9 -6 20 -12
22 -10 4 -9 8 2 16 8 5 11 13 8 17 -4 3 0 20 8 36 9 16 13 37 10 46 -5 13 -2
12 9 -2 8 -11 15 -15 15 -9 0 6 11 11 25 11 15 0 25 -6 25 -14 0 -8 3 -13 8
-13 4 1 14 1 22 0 12 -1 12 -4 -3 -15 -15 -12 -16 -14 -2 -20 8 -3 15 -2 15 3
0 5 10 12 23 15 20 6 19 8 -16 27 -21 11 -47 28 -58 37 -24 20 -84 126 -104
182 l-14 40 27 0 c15 0 32 -4 37 -8z m55 -22 c0 -5 -2 -10 -4 -10 -3 0 -8 5
-11 10 -3 6 -1 10 4 10 6 0 11 -4 11 -10z m620 -10 c0 -5 -4 -10 -10 -10 -5 0
-10 -8 -10 -17 0 -15 -2 -15 -9 -4 -6 9 -5 19 2 27 14 16 27 18 27 4z m-40
-51 c0 -10 -4 -19 -10 -19 -5 0 -10 4 -10 9 0 5 -3 17 -6 25 -5 12 -2 15 10
10 9 -3 16 -15 16 -25z m-740 17 c0 -3 -4 -8 -10 -11 -5 -3 -10 -1 -10 4 0 6
5 11 10 11 6 0 10 -2 10 -4z m820 -6 c0 -5 -2 -10 -4 -10 -3 0 -8 5 -11 10 -3
6 -1 10 4 10 6 0 11 -4 11 -10z m563 -9 c3 -13 1 -18 -9 -14 -7 2 -10 11 -7
19 7 19 10 18 16 -5z m-593 -3 c0 -7 -4 -19 -9 -27 -6 -9 -8 -5 -8 13 0 14 3
26 8 26 5 0 9 -6 9 -12z m85 2 c8 -13 -5 -13 -25 0 -13 8 -13 10 2 10 9 0 20
-4 23 -10z m-531 -24 c-3 -8 -12 -12 -20 -9 -17 6 -9 23 11 23 8 0 12 -6 9
-14z m539 -3 c14 -9 7 -23 -13 -23 -11 0 -20 5 -20 10 0 6 -10 15 -22 20 -19
8 -16 9 12 4 19 -4 38 -8 43 -11z m484 -25 c-3 -8 -6 -5 -6 6 -1 11 2 17 5 13
3 -3 4 -12 1 -19z m-451 -24 c-3 -8 -2 -12 4 -9 6 3 10 1 10 -6 0 -6 -10 -10
-23 -7 -17 3 -23 0 -24 -15 -4 -49 -79 -108 -98 -77 -3 6 1 10 9 10 12 0 16
10 16 38 0 30 5 39 27 50 15 6 33 12 40 12 7 0 13 5 13 10 0 6 7 10 16 10 10
0 14 -5 10 -16z m-824 -20 c-2 -10 -4 -34 -5 -51 -1 -18 -5 -33 -8 -33 -9 0
-29 -82 -23 -92 9 -14 -13 -8 -26 7 -16 19 -8 74 21 144 21 49 48 66 41 25z
m1242 10 c3 -8 2 -12 -4 -9 -6 3 -10 10 -10 16 0 14 7 11 14 -7z m-1196 -47
c8 -10 6 -13 -8 -13 -11 0 -22 6 -24 13 -3 7 1 13 8 13 7 0 18 -6 24 -13z
m612 -37 c0 -5 -7 -10 -15 -10 -8 0 -15 5 -15 10 0 6 7 10 15 10 8 0 15 -4 15
-10z m503 -30 c-9 -16 -21 -30 -25 -30 -5 0 1 14 14 30 12 17 23 30 25 30 2 0
-4 -13 -14 -30z m-1283 -40 c0 -5 -2 -10 -4 -10 -3 0 -8 5 -11 10 -3 6 -1 10
4 10 6 0 11 -4 11 -10z m665 0 c3 -5 1 -10 -4 -10 -6 0 -11 5 -11 10 0 6 2 10
4 10 3 0 8 -4 11 -10z m589 -94 c2 -97 -8 -87 -14 14 -3 47 -1 75 4 70 5 -5
10 -43 10 -84z m-1238 47 c-3 -8 -1 -24 5 -35 8 -15 8 -19 0 -14 -6 4 -11 2
-11 -4 0 -6 -5 -8 -11 -4 -8 4 -7 9 2 15 11 6 11 11 1 21 -15 15 -16 32 0 22
8 -5 9 -2 5 10 -4 11 -3 15 4 11 6 -4 8 -14 5 -22z m60 -73 c0 -12 -4 -16 -9
-11 -5 5 -6 14 -3 20 10 15 12 14 12 -9z m538 -67 c11 5 16 1 16 -13 0 -11 0
-23 1 -27 1 -15 -19 -13 -35 2 -9 9 -20 14 -25 10 -5 -3 -12 -1 -16 5 -3 5 1
10 9 10 9 0 16 8 16 18 0 14 2 14 9 3 5 -8 16 -11 25 -8z m-352 -18 c29 -13
79 -27 111 -31 31 -4 57 -7 57 -8 0 -1 -9 -51 -20 -112 -11 -60 -27 -162 -34
-227 -8 -65 -17 -122 -21 -125 -12 -12 -168 -6 -207 7 -23 8 -38 19 -38 29 0
36 84 492 91 492 4 0 31 -11 61 -25z m436 -25 c0 -18 -4 -30 -12 -30 -20 0
-27 12 -15 27 8 9 8 13 1 13 -6 0 -9 6 -6 14 9 24 31 7 32 -24z m555 3 c-7 -2
-9 -11 -6 -20 3 -8 0 -19 -8 -24 -23 -15 -35 -9 -15 6 13 10 15 15 6 15 -9 0
-8 6 5 20 10 11 21 17 24 14 3 -4 1 -9 -6 -11z m47 -23 c0 -5 -4 -10 -10 -10
-5 0 -10 5 -10 10 0 6 5 10 10 10 6 0 10 -4 10 -10z m-773 -26 c-3 -3 -12 -4
-19 -1 -8 3 -5 6 6 6 11 1 17 -2 13 -5z m496 -101 c4 -43 10 -140 13 -215 l7
-137 -29 -8 c-36 -9 -160 -10 -195 0 l-26 7 -7 157 c-3 87 -9 181 -13 210 l-6
52 79 4 c44 1 100 4 125 5 l46 2 6 -77z m-399 55 c-3 -4 -11 -5 -19 -1 -21 7
-19 12 4 10 11 0 18 -5 15 -9z m502 -3 c14 -13 12 -15 -15 -15 -39 0 -41 20
-3 29 2 1 10 -6 18 -14z m-40 -156 c-11 -16 -13 -10 -13 43 l0 61 13 -43 c10
-35 10 -47 0 -61z m-544 59 c-8 -8 -9 -4 -5 13 4 13 8 18 11 10 2 -7 -1 -18
-6 -23z m-471 -1 c-10 -9 -11 -8 -5 6 3 10 9 15 12 12 3 -3 0 -11 -7 -18z m36
1 c-3 -8 -6 -5 -6 6 -1 11 2 17 5 13 3 -3 4 -12 1 -19z m-27 -38 c0 -5 -5 -10
-11 -10 -5 0 -7 5 -4 10 3 6 8 10 11 10 2 0 4 -4 4 -10z m361 -76 c-1 -25 2
-44 6 -41 4 3 9 -9 10 -26 1 -24 -1 -27 -6 -13 -7 19 -8 18 -14 -4 -3 -13 -8
-22 -10 -20 -7 7 5 162 11 155 3 -3 5 -26 3 -51z m276 -11 c-3 -10 -5 -2 -5
17 0 19 2 27 5 18 2 -10 2 -26 0 -35z m-667 -96 c-14 -8 -27 -12 -30 -10 -7 6
23 23 40 23 8 0 4 -6 -10 -13z m393 -27 c4 0 5 6 1 13 -4 6 -3 9 1 4 5 -4 10
-18 12 -30 2 -17 1 -19 -6 -7 -6 8 -13 12 -16 8 -3 -3 1 -13 10 -22 9 -9 13
-16 8 -16 -5 0 -16 9 -26 20 -9 11 -12 20 -6 20 8 0 7 6 -2 18 -11 14 -11 15
1 5 8 -7 18 -13 23 -13z m-277 -56 c57 -16 179 -16 217 1 16 7 18 3 15 -31 -2
-31 -9 -42 -32 -52 -47 -23 -135 -26 -206 -8 -107 27 -141 67 -105 123 l17 25
19 -21 c11 -11 45 -28 75 -37z m-171 26 c-3 -5 -11 -10 -16 -10 -6 0 -7 5 -4
10 3 6 11 10 16 10 6 0 7 -4 4 -10z m717 -32 c-7 -7 -12 -8 -12 -2 0 14 12 26
19 19 2 -3 -1 -11 -7 -17z m-255 -20 c-3 -8 -6 -5 -6 6 -1 11 2 17 5 13 3 -3
4 -12 1 -19z m431 -16 c64 -3 99 0 132 13 25 9 52 17 60 18 19 3 43 -49 36
-77 -15 -59 -228 -84 -328 -39 -42 19 -48 26 -48 53 0 17 5 40 11 51 10 20 11
20 30 3 15 -13 42 -19 107 -22z m-364 13 c-4 -8 -10 -15 -14 -15 -4 0 -10 7
-14 15 -4 10 1 15 14 15 13 0 18 -5 14 -15z m-554 -5 c0 -5 -5 -10 -11 -10 -5
0 -7 5 -4 10 3 6 8 10 11 10 2 0 4 -4 4 -10z m-40 -20 c0 -5 -4 -10 -9 -10 -6
0 -13 5 -16 10 -3 6 1 10 9 10 9 0 16 -4 16 -10z m540 2 c0 -5 -7 -17 -15 -28
-14 -18 -14 -17 -4 9 12 27 19 34 19 19z m-418 -18 c17 -16 15 -19 -44 -58
-65 -44 -82 -66 -49 -63 11 0 19 4 19 7 -1 17 5 19 26 5 21 -14 24 -14 37 1
12 15 11 16 -10 9 -16 -5 -21 -4 -17 4 4 6 18 10 31 9 13 -1 21 -6 18 -11 -6
-10 15 -27 35 -27 6 0 12 9 12 20 0 13 7 20 20 20 11 0 20 5 20 10 0 6 -12 8
-27 5 -27 -5 -27 -5 -5 5 27 12 42 6 42 -17 0 -8 6 -13 13 -10 7 3 21 -1 31
-9 11 -7 23 -11 27 -8 5 3 9 -4 9 -16 0 -20 1 -20 17 -5 14 14 14 18 2 26 -11
8 -10 9 6 7 11 -2 19 -7 18 -11 -2 -4 -3 -24 -4 -44 -1 -33 -2 -34 -8 -13 -6
21 -8 22 -14 7 -4 -10 3 -34 17 -60 23 -40 23 -44 8 -54 -15 -10 -14 -11 6 -8
19 3 21 1 12 -15 -12 -22 -16 -25 -53 -34 -18 -4 -26 -3 -23 3 9 14 -14 25
-27 12 -8 -8 -7 -11 4 -12 7 0 -2 -6 -21 -13 -25 -9 -67 -11 -143 -7 -60 3
-117 3 -128 -1 -11 -4 -19 -3 -19 3 0 5 -11 7 -24 3 -37 -9 -38 9 -1 49 18 20
29 37 24 39 -15 5 11 80 34 99 12 9 19 20 15 24 -15 15 -106 -104 -129 -168
-13 -36 -16 -38 -44 -33 -53 11 -58 25 -30 82 46 92 141 185 250 243 48 25 44
25 67 5z m473 -14 c3 -5 -1 -10 -9 -10 -9 0 -16 5 -16 10 0 6 4 10 9 10 6 0
13 -4 16 -10z m692 -27 c6 -16 -37 -27 -50 -14 -6 6 -7 11 -1 11 5 0 3 4 -5 9
-9 6 -3 8 19 7 19 -1 35 -7 37 -13z m-1427 -7 c0 -2 -8 -10 -17 -17 -16 -13
-17 -12 -4 4 13 16 21 21 21 13z m1468 -21 c-3 -3 -9 2 -12 12 -6 14 -5 15 5
6 7 -7 10 -15 7 -18z m-1446 -7 c-7 -7 -12 -8 -12 -2 0 14 12 26 19 19 2 -3
-1 -11 -7 -17z m645 0 c-3 -8 -6 -5 -6 6 -1 11 2 17 5 13 3 -3 4 -12 1 -19z
m-710 -22 c-3 -7 0 -20 6 -27 10 -11 9 -11 -5 0 -15 11 -15 41 -1 41 3 0 3 -6
0 -14z m890 -18 c-3 -7 -5 -2 -5 12 0 14 2 19 5 13 2 -7 2 -19 0 -25z m133 22
c13 -8 13 -10 1 -10 -11 0 -9 -4 5 -15 15 -12 16 -14 3 -15 -9 0 -21 11 -27
25 -12 26 -7 31 18 15z m-107 -30 c3 -11 1 -18 -4 -14 -5 3 -9 12 -9 20 0 20
7 17 13 -6z m-313 -10 c26 -14 37 -77 17 -97 -34 -34 -83 38 -57 86 12 24 15
25 40 11z m142 -53 c-6 -25 -22 -2 -22 32 0 23 1 24 14 6 7 -10 11 -27 8 -38z
m358 43 c0 -3 36 -4 80 -2 52 2 80 0 80 -7 0 -6 -3 -11 -7 -11 -51 -4 -107
-10 -110 -14 -3 -2 -18 0 -34 4 -17 5 -29 5 -29 -1 0 -5 5 -9 10 -9 6 0 10 -4
10 -10 0 -22 -19 -8 -29 21 -14 40 -14 38 9 36 11 -1 20 -4 20 -7z m215 -17
c9 -21 13 -39 17 -73 2 -19 -2 -26 -19 -28 -19 -3 -23 -10 -23 -38 0 -20 6
-37 14 -40 7 -3 11 -14 9 -28 -5 -27 25 -45 39 -24 5 8 7 4 6 -12 -2 -25 -4
-26 -50 -20 -27 4 -54 12 -60 18 -15 15 -31 16 -22 1 3 -6 -8 -4 -24 5 -17 9
-46 17 -65 18 -18 2 -34 8 -34 14 0 6 9 9 21 6 12 -3 18 -2 15 1 -3 4 -23 9
-45 13 -34 5 -37 4 -21 -8 16 -12 15 -13 -13 -15 -16 -1 -32 2 -35 7 -4 6 2
10 12 10 17 1 17 1 0 11 -9 5 -22 7 -27 4 -6 -3 -7 1 -4 9 3 9 10 13 15 10 14
-8 50 59 42 81 -5 16 -3 18 8 9 8 -6 22 -9 31 -5 9 3 54 3 100 0 46 -3 86 -2
91 1 4 4 -1 17 -12 29 -18 21 -18 24 -3 42 20 24 28 24 37 2z m-544 -30 c-12
-20 -14 -14 -5 12 4 9 9 14 11 11 3 -2 0 -13 -6 -23z m250 10 c4 -59 -16 -103
-40 -89 -14 9 -14 61 -1 87 13 24 40 25 41 2z m-138 -13 c-3 -11 -7 -20 -9
-20 -2 0 -4 9 -4 20 0 11 4 20 9 20 5 0 7 -9 4 -20z m-946 -12 c-3 -8 -6 -5
-6 6 -1 11 2 17 5 13 3 -3 4 -12 1 -19z m838 -28 c3 -5 1 -10 -4 -10 -6 0 -11
5 -11 10 0 6 2 10 4 10 3 0 8 -4 11 -10z m40 -68 c-14 -13 -18 -14 -22 -4 -4
11 -9 10 -22 -2 -15 -14 -17 -13 -19 9 -2 22 1 24 24 15 36 -14 44 -13 45 8 0
11 2 13 6 4 3 -8 -2 -21 -12 -30z m-117 -14 c-3 -29 -9 -34 -78 -63 -87 -37
-223 -70 -326 -80 -83 -7 -224 8 -297 33 -50 16 -52 18 -49 51 1 19 4 36 6 38
1 2 36 -9 77 -24 69 -25 85 -27 234 -28 181 0 245 12 355 69 36 18 69 34 73
34 5 1 7 -12 5 -30z m263 9 c-7 -7 -14 -8 -21 -1 -6 6 -2 10 12 11 16 2 18 -1
9 -10z m696 -29 c-3 -8 -6 -5 -6 6 -1 11 2 17 5 13 3 -3 4 -12 1 -19z m-912 2
c3 -5 1 -10 -4 -10 -6 0 -11 5 -11 10 0 6 2 10 4 10 3 0 8 -4 11 -10z m247
-39 c35 -22 99 -52 143 -67 72 -25 94 -28 210 -28 125 0 144 3 228 39 14 6 17
2 17 -22 0 -24 -8 -34 -42 -54 -40 -22 -53 -24 -178 -24 -98 0 -152 5 -199 18
-133 36 -251 110 -251 156 0 12 2 21 4 21 3 0 33 -18 68 -39z m-207 19 c3 -5
1 -10 -4 -10 -6 0 -11 5 -11 10 0 6 2 10 4 10 3 0 8 -4 11 -10z m-482 -7 c-7
-2 -21 -2 -30 0 -10 3 -4 5 12 5 17 0 24 -2 18 -5z m524 1 c-3 -3 -12 -4 -19
-1 -8 3 -5 6 6 6 11 1 17 -2 13 -5z m833 -39 c0 -5 -5 -3 -10 5 -5 8 -10 20
-10 25 0 6 5 3 10 -5 5 -8 10 -19 10 -25z m-840 11 c0 -2 -9 -6 -20 -9 -11 -3
-20 -1 -20 4 0 5 9 9 20 9 11 0 20 -2 20 -4z m-100 -15 c0 -15 -20 -24 -20 -9
0 8 -5 6 -11 -4 -5 -10 -18 -18 -27 -18 -13 0 -12 5 8 20 27 21 50 26 50 11z
m97 -17 c-3 -3 -12 -4 -19 -1 -8 3 -5 6 6 6 11 1 17 -2 13 -5z m830 -16 c-3
-8 -6 -5 -6 6 -1 11 2 17 5 13 3 -3 4 -12 1 -19z m-1025 -24 c-13 -9 -35 -14
-55 -11 -32 4 -32 4 5 5 20 1 40 7 43 12 3 6 11 10 18 10 6 0 1 -7 -11 -16z
m-697 -4 c3 -5 1 -10 -4 -10 -6 0 -11 5 -11 10 0 6 2 10 4 10 3 0 8 -4 11 -10z
m985 0 c0 -5 -2 -10 -4 -10 -3 0 -8 5 -11 10 -3 6 -1 10 4 10 6 0 11 -4 11
-10z m-944 -9 c-3 -4 6 -13 19 -19 15 -7 26 -8 30 -2 4 6 16 10 28 10 18 0 15
-3 -13 -18 -30 -15 -37 -15 -46 -3 -7 8 -16 11 -24 6 -9 -5 -11 -4 -6 3 4 7 1
12 -6 12 -9 0 -9 3 2 10 19 12 23 12 16 1z m548 0 c4 -5 -3 -7 -14 -4 -23 6
-26 13 -6 13 8 0 17 -4 20 -9z m-57 -9 c8 -5 -1 -8 -22 -8 -21 0 -30 3 -22 8
6 4 17 8 22 8 6 0 16 -4 22 -8z m553 -27 c-13 -16 3 -30 23 -19 9 5 9 4 1 -5
-14 -15 -41 -5 -47 19 -3 14 -1 17 11 13 11 -5 13 -3 7 7 -5 9 -4 11 4 6 9 -6
9 -11 1 -21z m-495 -5 c3 -5 1 -10 -4 -10 -6 0 -11 5 -11 10 0 6 2 10 4 10 3
0 8 -4 11 -10z m1135 -20 c-28 -22 -45 -26 -34 -8 5 8 0 9 -14 6 -13 -4 -20
-2 -16 4 3 5 17 7 30 4 14 -4 24 -2 24 4 0 5 8 10 18 10 14 0 12 -4 -8 -20z
m-1357 -17 c-13 -2 -33 -2 -45 0 -13 2 -3 4 22 4 25 0 35 -2 23 -4z m803 -26
c2 -2 -11 -3 -29 -3 -19 1 -34 6 -34 12 0 8 10 9 30 3 16 -5 31 -10 33 -12z
m454 19 c0 -2 -7 -6 -15 -10 -8 -3 -15 -1 -15 4 0 6 7 10 15 10 8 0 15 -2 15
-4z m-396 -14 c2 -4 -4 -8 -15 -8 -10 0 -19 4 -19 8 0 4 6 8 14 8 8 0 17 -4
20 -8z m406 -12 c0 -5 -4 -10 -10 -10 -5 0 -10 5 -10 10 0 6 5 10 10 10 6 0
10 -4 10 -10z"/>
<path d="M2354 4132 c14 -24 98 -35 199 -27 56 5 133 8 171 8 63 0 68 1 50 14
-15 12 -38 13 -124 7 -138 -11 -195 -11 -254 -1 -30 5 -46 5 -42 -1z"/>
<path d="M2267 4021 c-19 -13 -57 -20 -126 -24 -90 -6 -171 -26 -171 -43 0 -3
12 -3 28 0 15 4 76 11 135 16 106 9 165 28 175 58 5 16 -7 14 -41 -7z"/>
<path d="M3147 3562 c-10 -10 -17 -29 -17 -43 l0 -24 18 23 c14 18 20 20 30
10 6 -6 12 -20 12 -30 0 -10 5 -18 10 -18 14 0 12 54 -2 68 -9 9 -7 12 11 12
12 0 19 4 16 10 -10 17 -61 11 -78 -8z"/>
<path d="M2403 1806 c5 -11 3 -22 -4 -27 -19 -11 31 -71 55 -65 14 4 16 2 7
-7 -14 -14 -15 -30 -1 -22 6 3 10 -1 10 -9 0 -16 12 -21 23 -10 3 4 -1 13 -9
21 -8 8 -12 18 -9 23 3 5 1 11 -5 15 -5 3 -10 18 -10 32 0 18 -4 24 -15 19 -8
-3 -15 -1 -15 5 0 6 -8 18 -17 27 -16 16 -16 16 -10 -2z"/>
<path d="M2490 1625 c0 -9 6 -12 15 -9 8 4 15 7 15 9 0 2 -7 5 -15 9 -9 3 -15
0 -15 -9z"/>
<path d="M2450 1611 c0 -5 7 -11 15 -15 9 -3 15 0 15 9 0 8 -7 15 -15 15 -8 0
-15 -4 -15 -9z"/>
<path d="M2433 1583 c-18 -6 -16 -38 2 -53 12 -10 16 -8 25 15 5 14 10 28 10
30 0 6 -25 12 -37 8z"/>
<path d="M2600 1571 c0 -5 9 -11 19 -14 14 -3 18 -1 14 9 -6 15 -33 19 -33 5z"/>
<path d="M2800 1549 c0 -5 5 -7 10 -4 6 3 10 8 10 11 0 2 -4 4 -10 4 -5 0 -10
-5 -10 -11z"/>
<path d="M2493 1502 c-8 -5 -8 -13 1 -31 9 -16 14 -19 18 -10 8 21 -5 49 -19
41z"/>
<path d="M2400 618 c0 -10 -7 -18 -15 -18 -8 0 -15 -4 -15 -10 0 -5 5 -10 11
-10 16 0 39 -26 39 -44 0 -9 4 -16 10 -16 6 0 6 10 -1 27 -5 14 -8 32 -5 39 3
7 -2 20 -9 31 -13 17 -14 17 -15 1z"/>
<path d="M2418 493 c7 -3 16 -2 19 1 4 3 -2 6 -13 5 -11 0 -14 -3 -6 -6z"/>
<path d="M3360 740 c-13 -8 -13 -10 2 -10 9 0 20 5 23 10 8 13 -5 13 -25 0z"/>
<path d="M3068 623 c7 -3 16 -2 19 1 4 3 -2 6 -13 5 -11 0 -14 -3 -6 -6z"/>
</g>
</svg>
